<?xml version="1.0" encoding="UTF-8" standalone="no"?>
<svg width="568px" height="100px" viewBox="0 0 568 100" version="1.1" xmlns="http://www.w3.org/2000/svg" xmlns:xlink="http://www.w3.org/1999/xlink" xmlns:sketch="http://www.bohemiancoding.com/sketch/ns">
    <!-- Generator: Sketch 3.5.1 (25234) - http://www.bohemiancoding.com/sketch -->
    <title>Artboard 1</title>
    <desc>Created with Sketch.</desc>
    <defs>
        <path id="path-1" d="M0.06,0.433 L566.933,0.433 L566.933,98 L0.06,98 L0.06,0.433 Z"></path>
    </defs>
    <g id="Page-1" stroke="none" stroke-width="1" fill="none" fill-rule="evenodd" sketch:type="MSPage">
        <g id="Artboard-1" sketch:type="MSArtboardGroup">
            <g id="OLIVER_RGB" sketch:type="MSLayerGroup" transform="translate(1.000000, 1.000000)">
                <g id="Group-4">
                    <mask id="mask-2" sketch:name="Clip 2" fill="white">
                        <use xlink:href="#path-1"></use>
                    </mask>
                    <g id="Clip-2"></g>
                    <path d="M529.784,31.224 C529.784,34.14 528.751,36.455 526.68,38.183 C524.612,39.908 521.659,40.77 517.827,40.77 L503.109,40.77 L503.109,21.45 L517.713,21.45 C521.468,21.45 524.417,22.235 526.567,23.807 C528.71,25.379 529.784,27.775 529.784,30.991 L529.784,31.224 L529.784,31.224 Z M529.197,82.615 C529.197,82.615 540.175,102.222 566.933,97.168 C566.933,97.168 562.384,93.113 554.984,82.615 C550.84,77.068 535.647,54.566 535.647,54.566 C540.709,52.421 544.735,49.313 547.724,45.253 C550.714,41.192 552.21,36.053 552.21,29.844 L552.21,29.614 C552.21,21.72 549.833,15.472 545.08,10.873 C542.393,8.111 538.908,5.968 534.613,4.43 C530.321,2.9 525.07,2.131 518.861,2.131 L480.798,2.131 L480.798,82.622 L503.109,82.622 L503.109,58.246 L512.882,58.246 L529.197,82.615 L529.197,82.615 Z" id="Fill-1" fill="#000105" sketch:type="MSShapeGroup" mask="url(#mask-2)"></path>
                    <path d="M63.936,42.516 C63.936,45.432 63.431,48.189 62.434,50.796 C61.438,53.404 60.052,55.685 58.283,57.637 C56.515,59.591 54.362,61.148 51.825,62.296 C49.29,63.443 46.481,64.019 43.408,64.019 C40.332,64.019 37.526,63.428 34.989,62.239 C32.452,61.052 30.282,59.461 28.472,57.467 C26.67,55.471 25.265,53.173 24.264,50.566 C23.266,47.961 22.767,45.202 22.767,42.287 L22.767,42.057 C22.767,39.145 23.248,36.387 24.204,33.776 C25.166,31.171 26.551,28.891 28.359,26.936 C30.165,24.981 32.318,23.431 34.817,22.281 C37.315,21.13 40.101,20.553 43.178,20.553 C46.252,20.553 49.06,21.148 51.593,22.337 C54.132,23.525 56.326,25.117 58.166,27.11 C60.01,29.101 61.438,31.403 62.434,34.01 C63.431,36.616 63.936,39.376 63.936,42.287 L63.936,42.516 L63.936,42.516 Z M74.396,12.622 C70.563,8.865 66.003,5.896 60.713,3.708 C55.424,1.52 49.674,0.433 43.464,0.433 C37.258,0.433 31.504,1.52 26.216,3.708 C20.927,5.896 16.328,8.884 12.415,12.676 C8.507,16.471 5.461,20.919 3.275,26.016 C1.09,31.115 0,36.541 0,42.287 L0,42.516 C0,48.265 1.09,53.672 3.275,58.73 C5.461,63.79 8.466,68.199 12.302,71.956 C16.135,75.712 20.697,78.68 25.99,80.865 C31.275,83.05 37.028,84.144 43.234,84.144 C49.448,84.144 55.194,83.05 60.483,80.865 C65.775,78.68 70.371,75.693 74.283,71.898 C78.193,68.103 81.24,63.658 83.425,58.558 C85.61,53.461 86.703,48.037 86.703,42.287 L86.703,42.057 C86.703,36.308 85.61,30.9 83.425,25.846 C81.24,20.783 78.23,16.376 74.396,12.622 L74.396,12.622 Z" id="Fill-3" fill="#000105" sketch:type="MSShapeGroup" mask="url(#mask-2)"></path>
                </g>
                <path d="M136.912,2.041 L114.604,2.041 L114.604,82.532 L175.896,82.532 L175.896,62.985 L136.912,62.985 L136.912,2.041" id="Fill-5" fill="#000105" sketch:type="MSShapeGroup"></path>
                <path d="M205.075,2.041 L227.5,2.041 L227.5,82.533 L205.075,82.533 L205.075,2.041 Z" id="Fill-6" fill="#000105" sketch:type="MSShapeGroup"></path>
                <path d="M301.963,52.98 L283.679,2.041 L258.726,2.041 L291.386,83.109 L312.083,83.109 L344.743,2.041 L320.25,2.041 L301.963,52.98" id="Fill-7" fill="#000105" sketch:type="MSShapeGroup"></path>
                <path d="M398.355,50.796 L436.988,50.796 L436.988,33.202 L398.355,33.202 L398.355,21.017 L441.017,21.017 L441.017,2.041 L376.39,2.041 L376.39,82.532 L441.589,82.532 L441.589,63.56 L398.355,63.56 L398.355,50.796" id="Fill-8" fill="#000105" sketch:type="MSShapeGroup"></path>
            </g>
        </g>
    </g>
</svg>
